<?xml version="1.0" standalone="no"?>
<!DOCTYPE svg PUBLIC "-//W3C//DTD SVG 20010904//EN"
 "http://www.w3.org/TR/2001/REC-SVG-20010904/DTD/svg10.dtd">
<svg version="1.0" xmlns="http://www.w3.org/2000/svg"
 width="250.000000pt" height="250.000000pt" viewBox="0 0 250.000000 250.000000"
 preserveAspectRatio="xMidYMid meet">
<metadata>
Created by potrace 1.11, written by Peter Selinger 2001-2013
</metadata>
<g transform="translate(0.000000,250.000000) scale(0.100000,-0.100000)"
fill="#000000" stroke="none">
<path d="M488 1899 c-65 -32 -118 -63 -118 -69 0 -11 7 -14 52 -24 55 -12 53
6 53 -525 0 -452 1 -494 17 -502 35 -19 177 -37 274 -35 89 2 108 6 165 33
143 68 211 181 206 346 -6 171 -109 303 -251 321 -44 5 -113 -14 -181 -49 -26
-14 -50 -23 -53 -20 -3 3 -6 136 -6 295 0 286 0 290 -21 289 -11 -1 -73 -28
-137 -60z m407 -593 c60 -46 75 -90 79 -231 4 -135 -28 -221 -96 -256 -75 -38
-174 -15 -211 49 -17 28 -19 56 -20 228 -1 108 0 200 3 204 17 27 68 41 137
37 59 -3 78 -9 108 -31z"/>
<path d="M1517 1436 c-97 -35 -162 -107 -159 -175 5 -100 37 -146 164 -231
102 -68 128 -99 128 -149 0 -72 -44 -104 -113 -81 -40 12 -63 37 -101 103 -28
49 -32 52 -55 38 -11 -7 -13 -27 -7 -96 3 -48 9 -91 12 -96 8 -13 42 -11 46 3
3 8 21 8 70 -1 176 -34 318 57 305 195 -9 90 -53 143 -200 239 -48 31 -92 65
-97 75 -29 54 9 120 68 120 46 -1 73 -23 106 -88 40 -78 74 -64 71 28 -5 104
-2 97 -47 112 -57 19 -144 21 -191 4z"/>
<path d="M2068 970 c-85 -45 -97 -145 -26 -205 21 -18 41 -25 71 -25 90 0 144
73 118 160 -20 67 -102 103 -163 70z"/>
</g>
</svg>
